<ttFont>
<head>
    <!-- Most of this table will be recalculated by the compiler -->
    <tableVersion value="1.0"/>
    <fontRevision value="1.0"/>
    <checkSumAdjustment value="0x69a511ef"/>
    <magicNumber value="0x5f0f3cf5"/>
    <flags value="00000000 00001011"/>
    <unitsPerEm value="1000"/>
    <created value="Thu Jun 18 17:00:09 2015"/>
    <modified value="Thu Jun 18 17:33:44 2015"/>
    <xMin value="0"/>
    <yMin value="-215"/>
    <xMax value="760"/>
    <yMax value="670"/>
    <macStyle value="00000000 00000001"/>
    <lowestRecPPEM value="8"/>
    <fontDirectionHint value="2"/>
    <indexToLocFormat value="0"/>
    <glyphDataFormat value="0"/>
  </head>
          <CharString index="0">
            -36 29 -29 36 36 29 29 36 36 -29 29 -36 -36 -29 -29 -36 vhcurveto
            return
          </CharString>
        <CharString name=".notdef">
          -70 0 50 433 50 hstem
          50 50 300 50 vstem
          50 hmoveto
          400 533 -400 hlineto
          50 -483 rmoveto
          433 300 -433 vlineto
          endchar
        </CharString>
        <CharString name="si_A">
          3 -4 31 173 29 58 22 82 42 hstemhm
          33 109 172 31 13 30 -4 4 33 24 14 68 hintmask 1111110111000000
          428 200 rmoveto
          51 48 27 54 hvcurveto
          0 75 -82 13 0 34 0 11 5 4 7 4 rrcurveto
          -19 -4 -16 -14 rlineto
          -1 -2 0 -4 0 -2 0 -25 11 -9 11 -17 11 -16 5 -18 0 -24 0 -36 -19 -22 -29 0 -7 0 -11 1 -9 5 rrcurveto
          -28 vlineto
          16 -5 15 -2 13 0 rrcurveto
          35 224 rmoveto
          -24 11 rlineto
          -20 -5 -19 -12 -15 -17 rrcurveto
          hintmask 1111111011000000
          -19 -22 -8 -29 0 -37 rrcurveto
          -528 30 528 vlineto
          0 38 4 42 71 31 rrcurveto
          60 -373 rmoveto
          33 vlineto
          -43 -33 -66 -24 -102 0 rrcurveto
          -117 -53 61 76 36 16 87 116 hvcurveto
          72 hlineto
          0 1 0 1 0 1 rrcurveto
          92 -51 51 -84 -57 -48 -23 -41 -24 19 -15 22 vhcurveto
          25 0 13 16 6 12 7 15 7 18 36 0 46 0 26 -40 1 -42 rrcurveto
          -112 hlineto
          -108 -61 -61 -88 -98 85 -66 164 hvcurveto
          104 0 86 21 51 34 rrcurveto
          endchar
        </CharString>
        <CharString name="si_Ca">
          2 98 178 26 91 38 121 25 hstemhm
          51 46 -27 78 125 33 214 42 hintmask 11110111
          306 278 rmoveto
          0 3 0 7 0 4 rrcurveto
          86 -43 55 -88 -55 -50 -25 -47 -26 19 -11 18 vhcurveto
          25 0 9 14 7 19 5 16 10 22 41 0 37 0 32 -33 0 -52 0 -2 0 -2 0 -2 rrcurveto
          -16 hlineto
          -37 0 -41 -12 -34 -12 -26 -5 -19 -11 -16 -14 rrcurveto
          hintmask 11111011
          -23 -21 -10 -32 0 -30 rrcurveto
          -119 110 -46 121 183 97 114 160 169 -112 134 -160 vhcurveto
          -98 0 -72 -37 -49 -70 rrcurveto
          33 hlineto
          45 53 62 29 79 0 rrcurveto
          135 95 -110 -132 -130 -82 -82 -153 -90 -98 20 71 hvcurveto
          0 23 11 23 28 16 24 14 37 11 49 0 rrcurveto
          -111 hmoveto
          167 0 -31 26 -270 0 0 -33 rlineto
          16 2 47 4 71 1 rrcurveto
          endchar
        </CharString>
        <CharString name="si_DIi">
          77 0 98 189 28 75 42 36 29 100 73 hstemhm
          46 47 -16 50 172 28 54 33 108 39 -6 43 hintmask 1111110110100000
          260 315 rmoveto
          -245 -28 111 hlineto
          -52 -23 -28 -49 0 -57 0 -85 65 -73 87 0 48 0 36 20 31 39 31 -38 25 -21 62 0 121 0 46 141 0 114 0 111 -45 69 -71 33 rrcurveto
          hintmask 1111101111000000
          47 3 32 36 0 41 0 51 -32 31 -51 18 -45 16 -61 6 -65 0 -139 0 -91 -31 0 -79 0 -100 140 14 107 -6 rrcurveto
          hintmask 1111110110100000
          129 -6 102 -24 0 -163 rrcurveto
          -78 -32 -99 -98 -50 -49 21 48 vhcurveto
          28 -27 -28 vlineto
          -50 -52 -19 -49 -70 -35 40 51 46 41 52 90 vhcurveto
          71 hlineto
          85 -48 60 -82 -42 -47 -17 -41 -22 17 -14 20 vhcurveto
          15 0 13 5 11 19 14 25 16 3 16 0 rrcurveto
          29 0 30 -32 3 -43 rrcurveto
          154 226 rmoveto
          26 22 22 31 vhcurveto
          hintmask 1111100111000000
          31 24 -20 -29 -30 -23 -18 -31 -31 -23 21 28 hvcurveto
          -3 -54 rmoveto
          -44 8 -70 2 -42 0 rrcurveto
          hintmask 1111101110000000
          -78 1 -50 9 0 36 0 48 102 6 62 0 37 0 39 -2 33 -3 -13 -15 -6 -17 0 -18 0 -20 9 -24 21 -11 rrcurveto
          endchar
        </CharString>
        <CharString name="si_Dda">
          77 0 98 189 28 75 42 123 27 hstem
          46 47 206 28 226 45 vstem
          76 374 rmoveto
          -22 17 -14 20 vhcurveto
          15 0 13 5 11 19 14 25 16 3 16 0 29 0 30 -32 3 -43 rrcurveto
          -245 -28 110 hlineto
          -54 -24 -25 -51 0 -50 0 -81 52 -81 101 0 51 0 33 22 30 37 22 -30 28 -29 65 0 rrcurveto
          119 51 126 132 186 -119 138 -175 hvcurveto
          -94 0 -83 -36 -54 -78 rrcurveto
          34 hlineto
          47 56 64 31 80 0 rrcurveto
          158 97 -127 -148 -100 -47 -82 -86 -55 -39 25 41 hvcurveto
          29 -27 -29 vlineto
          -43 -43 -23 -56 -65 -42 37 53 45 36 54 93 vhcurveto
          73 hlineto
          -1 89 -47 56 -82 0 rrcurveto
          -42 -47 -17 -41 hvcurveto
          endchar
        </CharString>
        <CharString name="si_E">
          25 0 98 178 26 57 40 -7 39 hstemhm
          45 49 168 33 -12 31 192 39 hintmask 11011101
          506 280 rmoveto
          -107 -74 -75 -153 -88 -97 20 74 vhcurveto
          0 23 11 22 22 14 25 15 34 10 44 0 rrcurveto
          65 hlineto
          0 3 0 8 0 3 rrcurveto
          73 -38 69 -88 vhcurveto
          hintmask 11101101
          -55 -50 -26 -47 -26 20 -11 17 hvcurveto
          24 0 11 12 7 21 rrcurveto
          hintmask 11011101
          5 16 14 21 32 0 37 0 31 -36 0 -48 0 -2 0 -2 0 -2 rrcurveto
          -11 hlineto
          -37 0 -41 -12 -34 -12 -26 -5 -19 -11 -16 -14 -23 -20 -10 -32 0 -31 rrcurveto
          -119 110 -46 121 183 86 117 128 vhcurveto
          0 70 -13 48 -39 67 -36 62 -71 72 -61 33 rrcurveto
          hintmask 11101011
          -27 -31 -15 -36 0 -50 0 -66 37 -55 63 0 43 0 30 20 15 32 rrcurveto
          20 -30 15 -44 0 -57 rrcurveto
          -377 -4 rmoveto
          162 0 -31 26 -244 0 0 -33 rlineto
          16 3 26 3 71 1 rrcurveto
          322 164 rmoveto
          -10 -30 -27 -11 -24 0 -53 0 -23 37 0 50 0 34 9 22 11 17 38 -28 49 -46 30 -45 rrcurveto
          endchar
        </CharString>
        <CharString name="si_Ga">
          66 -2 100 -99 26 192 25 109 81 -24 24 hstemhm
          34 40 142 26 67 43 176 58 hintmask 1010111110000000
          233 407 rmoveto
          24 vlineto
          -4 0 -5 1 -4 0 rrcurveto
          -111 -75 -102 -123 -111 63 -98 111 87 57 58 80 66 -33 39 -49 hvcurveto
          -7 0 -8 -1 -7 -4 rrcurveto
          hintmask 0111011110000000
          14 64 43 51 74 0 rrcurveto
          96 53 -76 -90 -86 -59 -74 -107 hvcurveto
          -8 0 -8 1 -8 1 rrcurveto
          -26 vlineto
          11 -1 10 -1 10 0 rrcurveto
          131 86 96 122 115 -64 100 -112 hvcurveto
          -122 0 -62 -115 -10 -125 rrcurveto
          26 hlineto
          0 3 1 9 1 6 6 4 9 3 9 0 rrcurveto
          20 21 -13 -34 hvcurveto
          hintmask 1010111110000000
          -44 -44 -28 -59 -83 -49 60 82 93 62 75 86 vhcurveto
          3 0 5 -1 3 0 rrcurveto
          endchar
        </CharString>
        <CharString name="si_Gha">
          107 -1 99 87 29 61 33 -26 26 -18 26 76 39 hstemhm
          51 44 185 33 65 42 120 39 8 41 hintmask 1101011111100000
          187 432 rmoveto
          -55 -50 -26 -47 -26 20 -11 17 hvcurveto
          24 0 11 13 7 20 6 18 13 19 32 0 37 0 33 -36 -2 -48 rrcurveto
          -11 hlineto
          -37 0 -54 -12 -34 -12 -52 -16 -41 -42 0 -72 0 -78 57 -77 91 0 19 0 28 3 31 9 3 6 1 16 0 7 0 43 -13 6 4 40 rrcurveto
          3 39 27 17 30 0 34 0 21 -24 3 -30 6 -37 -18 -19 0 -37 0 -7 1 -14 3 -5 31 -8 27 -4 24 0 92 0 72 58 0 108 rrcurveto
          0 55 -31 53 -47 23 17 10 12 22 0 21 0 57 -48 25 -54 0 -79 0 -49 -61 4 -90 rrcurveto
          hintmask 1100111111100000
          33 7 26 2 36 0 rrcurveto
          92 47 -41 -60 -58 -53 -33 -58 hvcurveto
          -31 0 -19 4 -6 5 1 11 -1 13 -2 9 -5 55 -45 19 -36 0 -39 0 -45 -21 -5 -59 -1 -9 0 -11 1 -10 -5 -4 -18 -2 -16 0 rrcurveto
          -58 -51 32 54 hvcurveto
          0 41 27 27 33 16 rrcurveto
          hintmask 1101011111100000
          20 9 23 5 20 0 rrcurveto
          95 hlineto
          2 82 -35 68 -93 0 rrcurveto
          hintmask 1110011111100000
          -182 -124 rmoveto
          -33 vlineto
          hintmask 1101011111100000
          16 3 55 4 71 0 rrcurveto
          162 0 -31 26 rlineto
          105 2 rmoveto
          5 55 30 27 52 0 34 0 36 -14 0 -33 0 -15 -6 -13 -10 -11 rrcurveto
          hintmask 1100111111100000
          -15 6 -30 4 -34 0 -26 0 -23 -2 -13 -4 rrcurveto
          endchar
        </CharString>
        <CharString name="si_Ha">
          83 -1 28 -28 99 114 25 42 24 41 88 -50 50 hstemhm
          33 47 126 33 0 23 63 41 184 55 hintmask 0111011011100000
          262 182 rmoveto
          7 21 13 9 13 0 rrcurveto
          17 13 -14 -23 -57 -63 -19 -54 -64 -64 27 64 55 45 34 80 hvcurveto
          11 0 11 -1 12 -1 -1 84 -41 71 -79 0 rrcurveto
          -56 -29 -38 -30 -25 15 -13 20 hvcurveto
          17 0 15 10 7 18 7 18 11 10 21 0 rrcurveto
          hintmask 0111101101100000
          36 24 -38 -41 hvcurveto
          -4 0 -4 0 -4 0 rrcurveto
          -94 -67 -57 -91 -94 70 -62 98 95 70 54 92 54 -28 38 -38 hvcurveto
          -9 0 -10 -2 -10 -6 22 75 44 40 76 0 rrcurveto
          91 46 -73 -78 hvcurveto
          hintmask 1011101011100000
          -100 -63 -66 -99 vhcurveto
          -12 0 -12 1 -12 2 rrcurveto
          -28 vlineto
          14 -2 14 -1 13 0 rrcurveto
          123 89 93 119 118 -63 103 -112 hvcurveto
          -101 0 -81 -115 -9 -125 rrcurveto
          endchar
        </CharString>
        <CharString name="si_I">
          23 -160 23 122 29 40 27 24 28 98 29 82 91 hstemhm
          33 50 90 63 -29 31 100 39 -5 67 57 48 hintmask 1111111100110000
          273 14 rmoveto
          -11 0 -1 -1 -12 -1 rrcurveto
          -28 vlineto
          10 1 0 0 8 0 rrcurveto
          67 38 -26 -42 -38 -33 -16 -39 -56 -12 23 20 hvcurveto
          0 12 4 11 0 6 rrcurveto
          17 -14 10 -15 -17 -17 -12 -26 -63 63 -21 62 66 75 26 59 vhcurveto
          0 39 -22 24 -33 6 89 16 71 82 0 106 rrcurveto
          155 -100 79 -160 -143 -108 -75 -136 -104 80 -63 107 vhcurveto
          hintmask 1111111011010000
          90 67 36 80 53 -33 37 -58 -45 -34 -35 -46 -40 36 -34 42 hvcurveto
          14 0 19 3 15 12 -16 -24 -41 -15 -53 0 rrcurveto
          -84 -56 52 64 95 89 50 113 123 88 -71 -101 -98 -73 -60 -99 hvcurveto
          -17 0 -17 2 -17 0 rrcurveto
          15 217 rmoveto
          27 23 -21 -28 -27 -22 -22 -28 -27 -23 21 28 27 22 22 28 hvcurveto
          endchar
        </CharString>
        <CharString name="si_Ii">
          -42 0 97 306 27 -17 24 36 27 6 27 43 27 hstemhm
          31 39 48 27 76 27 135 27 12 60 4 27 hintmask 1101111111110000
          410 468 rmoveto
          21 17 17 21 21 17 -17 -21 -21 -17 -17 -21 vhcurveto
          -21 -17 17 21 hvcurveto
          -27 hmoveto
          -107 callsubr
          -238 70 rmoveto
          21 17 17 21 21 17 -17 -21 -21 -17 -17 -21 -21 -17 17 21 vhcurveto
          -27 hmoveto
          -107 callsubr
          52 -116 rmoveto
          -75 -41 -64 -58 0 -110 rrcurveto
          -124 93 -89 124 136 98 102 123 vhcurveto
          0 56 -17 45 -35 40 rrcurveto
          hintmask 1011111111110000
          -42 47 -55 24 -71 0 -9 0 -1 0 -5 -1 45 26 35 23 33 27 48 41 23 27 0 20 0 14 -9 10 -21 0 -23 0 -13 -14 -13 -21 rrcurveto
          -14 -21 -14 -27 -23 -24 -45 -44 -33 -23 -53 -28 rrcurveto
          -100 -179 rmoveto
          102 104 68 88 92 68 -53 -93 -103 -83 -67 -105 -108 -56 68 78 vhcurveto
          endchar
        </CharString>
        <CharString name="si_Ka">
          176 -1 99 -99 28 46 50 165 26 44 76 -44 43 hstemhm
          21 27 -19 79 86 31 56 26 155 53 119 67 hintmask 0011010111110000
          108 323 rmoveto
          7 17 -3 1 7 22 6 19 19 8 14 0 25 0 11 -21 0 -26 0 -5 0 -9 -1 -5 -30 -27 -28 -29 -26 -36 rrcurveto
          hintmask 0011001011110000
          -35 -48 -45 -93 -8 -69 rrcurveto
          27 -11 rlineto
          3 40 14 22 22 0 rrcurveto
          hintmask 1001100111110000
          33 0 -3 -74 87 0 42 0 33 23 17 41 21 -43 34 -21 46 0 rrcurveto
          85 33 69 58 123 -90 64 -120 hvcurveto
          -27 0 -34 -1 -30 -8 40 35 56 19 69 0 rrcurveto
          134 121 -83 -137 hvcurveto
          hintmask 0101100111110000
          -61 -33 -50 -49 vhcurveto
          -20 0 -17 5 -9 7 rrcurveto
          -2 -27 rlineto
          18 -12 18 -1 10 0 rrcurveto
          108 43 111 82 136 -98 106 -150 hvcurveto
          -87 0 -82 -33 -59 -55 rrcurveto
          4 vlineto
          hintmask 0011010111110000
          49 -37 34 -52 -57 -50 -39 -54 -12 6 -31 35 vhcurveto
          15 0 16 8 7 18 rrcurveto
          71 -54 rmoveto
          25 12 40 7 57 0 rrcurveto
          102 59 -45 -67 hvcurveto
          hintmask 1001000011110000
          -38 -23 -40 -53 -49 -30 17 65 vhcurveto
          1 -26 -1 vlineto
          -60 -31 -22 -45 vhcurveto
          hintmask 0011000011110000
          -50 0 -20 25 -30 0 -9 0 -9 -3 -9 -6 10 29 14 29 28 40 16 23 16 19 17 15 rrcurveto
          endchar
        </CharString>
        <CharString name="si_Kha">
          60 -1 30 -29 94 22 30 157 93 179 26 hstemhm
          32 32 116 31 149 53 127 44 hintmask 1011111110000000
          93 72 rmoveto
          24 19 20 24 24 20 -20 -24 -24 -20 -19 -24 vhcurveto
          -24 -19 19 24 hvcurveto
          -21 30 rmoveto
          -6 17 -2 20 0 12 rrcurveto
          102 89 50 83 92 32 -37 -46 vhcurveto
          0 -35 -21 -39 -52 -62 -42 -50 -29 -39 -13 -13 rrcurveto
          37 -3 rlineto
          42 55 26 20 13 0 rrcurveto
          hintmask 0111111110000000
          27 0 4 -54 64 0 rrcurveto
          108 60 150 136 187 -120 128 -166 hvcurveto
          -112 0 -77 -48 -45 -83 rrcurveto
          34 hlineto
          41 71 66 34 89 0 rrcurveto
          151 95 -108 -160 -103 -38 -110 -64 hvcurveto
          -41 0 0 39 -29 0 -2 0 -3 0 -4 -1 27 29 27 40 0 57 rrcurveto
          85 -80 53 -93 -116 -92 -74 -139 vhcurveto
          hintmask 1011111110000000
          -75 24 -109 85 40 30 38 36 45 -31 28 -44 vhcurveto
          -28 0 -28 -17 -8 -27 rrcurveto
          endchar
        </CharString>
        <CharString name="si_Na">
          236 -1 29 -29 99 185 25 50 75 -49 47 hstemhm
          55 82 85 31 191 55 189 72 hintmask 1011011110000000
          267 295 rmoveto
          39 43 59 20 64 0 rrcurveto
          129 130 -78 -141 -74 -34 -37 -47 hvcurveto
          -17 0 -17 5 -18 11 rrcurveto
          -13 -23 rlineto
          22 -15 24 -7 25 0 rrcurveto
          74 73 64 120 152 -114 98 -140 hvcurveto
          -105 0 -98 -58 -50 -58 0 1 0 1 0 1 rrcurveto
          hintmask 0110111110000000
          67 -34 44 -65 -65 -34 -47 -40 -30 20 -14 20 vhcurveto
          30 0 10 26 2 19 3 22 11 17 27 0 30 0 14 -28 0 -34 0 -13 -1 -13 -7 -11 -82 -77 -4 -78 -63 0 -13 0 -14 4 -12 6 rrcurveto
          24 -94 96 -47 130 0 rrcurveto
          122 100 54 116 80 -69 59 -84 hvcurveto
          -28 0 -24 -3 -26 -10 rrcurveto
          69 -12 rmoveto
          61 47 -35 -50 -70 -70 -30 -110 hvcurveto
          -58 0 -50 6 -39 16 69 43 -15 120 165 0 rrcurveto
          endchar
        </CharString>
        <CharString name="si_Os">
          66 0 98 126 30 33 28 94 25 120 24 hstem
          30 35 107 28 44 30 19 25 71 30 128 43 vstem
          274 362 rmoveto
          26 21 21 26 26 21 -21 -26 -26 -21 -21 -26 -26 -21 21 26 vhcurveto
          114 -31 rmoveto
          1 -2 0 -2 0 -1 rrcurveto
          -45 -41 -28 -53 -55 -40 31 53 vhcurveto
          0 3 0 17 0 14 0 30 -8 14 -11 8 -7 5 -7 4 -19 0 rrcurveto
          -74 -44 -100 -108 -97 48 -127 118 hvcurveto
          50 0 37 15 22 40 16 -39 44 -16 41 0 rrcurveto
          137 47 127 127 177 -104 147 -184 hvcurveto
          -127 0 -68 -47 -45 -65 rrcurveto
          31 hlineto
          46 58 60 30 99 0 rrcurveto
          160 89 -119 -137 -97 -44 -102 -95 -59 -32 26 39 hvcurveto
          20 -24 -19 vlineto
          -33 -19 -34 -74 -83 -52 68 97 65 29 77 51 23 4 -13 -20 vhcurveto
          0 -9 0 -19 0 -5 rrcurveto
          -73 53 -42 71 71 52 43 63 59 -37 45 -60 -46 -32 -32 -42 -37 27 -36 47 vhcurveto
          42 0 22 30 6 14 rrcurveto
          endchar
        </CharString>
        <CharString name="si_Pa">
          46 0 98 203 26 67 39 -28 28 hstemhm
          31 47 -22 84 365 36 -11 44 hintmask 11100100
          158 434 rmoveto
          -55 -47 -25 -43 -27 22 -11 17 hvcurveto
          26 0 14 16 5 16 5 19 13 15 32 0 33 0 26 -24 -5 -45 -13 1 -11 1 -13 0 rrcurveto
          hintmask 11011001
          -108 -68 -52 -91 -138 128 -46 148 141 126 56 130 hvcurveto
          0 55 -20 38 -40 24 rrcurveto
          hintmask 11010010
          19 14 8 17 0 20 0 39 -36 40 -66 0 -85 0 -45 -50 15 -86 23 4 24 2 23 0 rrcurveto
          hintmask 11101001
          78 58 -25 -62 -85 -121 -33 -102 -108 -121 29 85 66 62 23 77 hvcurveto
          1 0 35 -1 18 -2 rrcurveto
          17 87 -43 49 -87 0 rrcurveto
          330 -119 rmoveto
          -24 9 -28 4 -33 0 -16 0 -16 -1 -17 -2 rrcurveto
          hintmask 11010010
          -7 52 39 28 46 0 47 0 26 -25 0 -29 0 -13 -6 -12 -11 -11 rrcurveto
          endchar
        </CharString>
        <CharString name="si_Tta">
          33 -1 99 266 27 161 25 hstem
          32 46 433 46 vstem
          78 235 rmoveto
          83 73 46 83 vhcurveto
          32 0 28 -6 27 -13 rrcurveto
          30 vlineto
          -29 11 -33 5 -27 0 rrcurveto
          -106 -94 -68 -115 -127 101 -82 152 162 110 116 156 162 -111 144 -173 hvcurveto
          -96 0 -73 -38 -47 -69 rrcurveto
          34 hlineto
          42 54 62 28 80 0 rrcurveto
          142 94 -120 -127 -137 -100 -70 -134 -96 -103 41 96 hvcurveto
          endchar
        </CharString>
        <CharString name="si_U">
          81 -161 43 388 26 92 44 hstem
          32 108 433 30 vstem
          539 270 rmoveto
          0 2 0 2 0 2 rrcurveto
          94 -70 62 -93 -63 -46 -22 -45 -20 16 -18 25 vhcurveto
          25 0 12 15 7 12 14 23 20 11 24 0 49 0 44 -42 3 -50 rrcurveto
          -242 hlineto
          -143 -89 -86 -111 -161 145 -99 151 152 123 97 133 hvcurveto
          -30 hlineto
          -106 -101 -81 -111 -113 -108 91 140 94 55 63 124 vhcurveto
          endchar
        </CharString>
        <CharString name="si_Va">
          0 98 181 25 88 39 121 25 hstemhm
          33 48 -25 77 126 33 214 42 hintmask 11110111
          292 279 rmoveto
          0 3 0 5 0 3 rrcurveto
          86 -43 56 -88 -55 -50 -26 -47 -26 20 -11 17 vhcurveto
          24 0 10 14 6 19 6 16 10 21 40 0 37 0 33 -32 0 -52 0 -2 0 0 0 -2 rrcurveto
          -60 hlineto
          hintmask 11111011
          -101 -65 -54 -85 -119 113 -46 121 183 98 114 160 169 -112 134 -160 hvcurveto
          -98 0 -72 -37 -49 -70 rrcurveto
          33 hlineto
          44 53 63 29 79 0 rrcurveto
          134 96 -111 -135 -126 -83 -82 -153 -87 -102 20 75 55 50 31 74 hvcurveto
          endchar
        </CharString>
</ttFont>
